# xmcd
#
# Track frame offsets: 
#        187
#        18144
#        40919
#        58764
#        74877
#        100627
#        117724
#        143254
#        157384
#        184067
#
# Disc length: 2621 seconds
#
# Revision: 3
# Processed by: cddbd v1.5.2PL0 Copyright (c) Steve Scherf et al.
# Submitted via: ExactAudioCopy v0.95a5
#
DISCID=8e0a3b0a
DTITLE=Stephane Grappelli - McCoy Tyner - One On One
DYEAR=1990
DGENRE=Jazz
TTITLE0=How High The Moon
TTITLE1=St. Louis Blues
TTITLE2=I Want To Talk To You
TTITLE3=Mr. P.C.
TTITLE4=Summertime
TTITLE5=Satin Doll
TTITLE6=I Didn't Know What Time It Was
TTITLE7=You Say You Care
TTITLE8=Yours Is My Heart Alone
TTITLE9=I Got Rhythm
EXTD=YEAR: 1990
EXTT0=
EXTT1=
EXTT2=
EXTT3=
EXTT4=
EXTT5=
EXTT6=
EXTT7=
EXTT8=
EXTT9=
PLAYORDER=
